<?xml version="1.0" encoding="UTF-8" standalone="no"?>
<svg width="180px" height="27px" viewBox="0 0 180 27" version="1.1" xmlns="http://www.w3.org/2000/svg" xmlns:xlink="http://www.w3.org/1999/xlink">
    <!-- Generator: Sketch 41.2 (35397) - http://www.bohemiancoding.com/sketch -->
    <title>XPO-Logo</title>
    <desc>Created with Sketch.</desc>
    <defs></defs>
    <g id="Symbols" stroke="none" stroke-width="1" fill="none" fill-rule="evenodd">
        <g id="_nav_white" transform="translate(-170.000000, -29.000000)">
            <g id="optionB">
                <g id="XPO-Logo" transform="translate(170.000000, 29.000000)">
                    <g id="Layer_1">
                        <g id="Group">
                            <path d="M50.3009524,5.12325 C47.7704762,5.12325 46.3809524,7.31121429 46.3809524,10.8424286 C46.3809524,14.5587857 47.7095238,16.7158929 50.3314286,16.7158929 C52.892381,16.7158929 54.127619,14.6214643 54.127619,10.6862143 C54.1266667,7.18682143 52.8,5.12325 50.3009524,5.12325 L50.3009524,5.12325 Z" id="Shape"></path>
                            <polygon id="Shape" points="14.6647619 10.3111071 22.0495238 21.3377143 22.0495238 0.531321429"></polygon>
                            <path d="M30.9580952,5.65457143 L28.5619048,5.65457143 L28.5619048,10.0285714 L31.0809524,10.0285714 C32.9019048,10.0603929 33.6733333,9.37092857 33.6733333,7.87435714 C33.6733333,6.37392857 32.8095238,5.65457143 30.9580952,5.65457143 L30.9580952,5.65457143 Z" id="Shape"></path>
                            <polygon id="Shape" fill="#000000" points="68.3580952 0.532285714 61.8561905 0.532285714 61.8561905 21.3377143 77.2333333 21.3377143 77.2333333 15.903 68.3580952 15.903"></polygon>
                            <path d="M93.3790476,13.4488929 C93.2266667,8.91385714 89.9447619,5.84164286 85.2457143,5.84164286 C80.3695238,5.84164286 77.0066667,9.12214286 77.0066667,13.8403929 C77.0066667,18.5586429 80.3390476,21.80925 85.1828571,21.80925 C89.9647619,21.80925 93.3428571,18.5682857 93.3885714,13.8741429 C93.3847619,13.7507143 93.3761905,13.6330714 93.3761905,13.50675 C93.3771429,13.4874643 93.3790476,13.4681786 93.3790476,13.4488929 L93.3790476,13.4488929 Z M85.1838095,17.7370714 C83.5485714,17.7370714 82.7666667,16.3726071 82.7666667,13.8413571 C82.7666667,11.3110714 83.5171429,9.97842857 85.1219048,9.97842857 C86.82,9.97842857 87.807619,11.3313214 87.807619,13.83075 C87.807619,16.4545714 86.8504762,17.7370714 85.1838095,17.7370714 L85.1838095,17.7370714 Z" id="Shape" fill="#000000"></path>
                            <path d="M103.795238,8.06239286 C102.745714,6.43660714 101.707619,5.81271429 99.732381,5.81271429 C95.8914286,5.81271429 93.4009524,9.072 93.3780952,13.4488929 C93.3819048,13.5588214 93.3933333,13.6658571 93.3933333,13.7777143 C93.3933333,13.8095357 93.3895238,13.8394286 93.3895238,13.8731786 C93.5180952,18.1131429 95.8638095,20.628 99.732381,20.628 C101.582857,20.628 102.71619,20.0966786 103.85619,18.7543929 L103.85619,20.3907857 C103.85619,22.4890714 103.299048,23.2460357 101.582857,23.2460357 C99.8857143,23.2460357 99.567619,22.6231071 99.2580952,21.3290357 L93.9009524,21.3290357 C94.3695238,25.1331429 95.9057143,26.4011786 101.551429,26.4011786 C105.070476,26.4011786 107.178095,25.49475 108.444762,23.4948214 C109.153333,22.4022857 109.399048,21.3386786 109.399048,19.4023929 L109.399048,6.24857143 L103.792381,6.24857143 L103.792381,8.06239286 L103.795238,8.06239286 L103.795238,8.06239286 Z M101.490476,16.6821429 C99.7638095,16.6821429 98.9828571,15.5683929 98.9828571,13.4739643 C98.9828571,11.6321786 99.8847619,10.0729286 101.490476,10.0729286 C103.097143,10.0729286 103.970476,11.7160714 103.970476,13.7150357 C103.969524,15.5886429 103.09619,16.6821429 101.490476,16.6821429 L101.490476,16.6821429 Z" id="Shape" fill="#000000"></path>
                            <path id="Shape" fill="#FFFFFF"></path>
                            <path d="M116.466667,15.8885357 C116.464762,15.8653929 116.460952,15.84225 116.459048,15.8181429 L116.466667,15.8181429 L116.466667,6.24953571 L110.653333,6.24953571 L110.653333,21.3377143 L116.466667,21.3377143 L116.466667,15.8885357 L116.466667,15.8885357 Z" id="Shape" fill="#000000"></path>
                            <path d="M137.36,0.518785714 L131.485714,6.24857143 L131.517143,16.3398214 C131.517143,18.0591429 131.638095,18.6203571 132.071429,19.4342143 C132.873333,20.9336786 134.489524,21.5267143 137.389524,21.5267143 C138.377143,21.5267143 140.053333,21.4630714 141.473333,21.3386786 L141.473333,17.2780714 L141.258095,17.2780714 L139.548571,17.2780714 C137.634286,17.2780714 137.409524,17.0292857 137.357143,15.2154643 L137.357143,10.5897857 L141.471429,10.5897857 L141.471429,6.24857143 L137.357143,6.24857143 L137.357143,0.518785714 L137.36,0.518785714 L137.36,0.518785714 Z" id="Shape" fill="#000000"></path>
                            <rect id="Rectangle-path" fill="#000000" x="142.752381" y="6.24953571" width="5.81428571" height="15.0881786"></rect>
                            <path d="M156.777143,17.5789286 C155.132381,17.5789286 154.319048,16.2771429 154.319048,13.96575 C154.319048,11.3718214 155.167619,9.94564286 156.808571,9.94564286 C157.954286,9.94564286 158.734286,10.773 158.891429,11.9928214 L164.40381,11.9928214 C164.15619,8.36710714 161.070476,5.90335714 156.777143,5.90335714 C151.847619,5.90335714 148.569524,9.12214286 148.569524,13.9348929 C148.569524,18.5904643 151.88,21.7137857 156.718095,21.7137857 C161.102857,21.7137857 164.001905,19.8806786 164.529524,15.8181429 L159.015238,15.8181429 C158.766667,17.3494286 157.666667,17.5789286 156.777143,17.5789286 L156.777143,17.5789286 Z" id="Shape" fill="#000000"></path>
                            <path d="M173.724762,11.6215714 C170.793333,11.0912143 170.474286,10.9031786 170.474286,10.18575 C170.474286,9.56185714 170.948571,9.19639286 172.026667,9.19639286 C173.32381,9.19639286 173.735238,9.52617857 173.951429,10.5897857 L179.18381,10.5897857 C178.879048,7.24564286 176.65619,5.81175 171.871429,5.81175 C167.334286,5.81175 164.837143,7.52914286 164.837143,10.59075 C164.837143,12.0911786 165.513333,13.3418571 166.720952,14.0612143 C167.645714,14.6224286 168.446667,14.8731429 171.068571,15.4343571 C173.815238,16.0273929 173.948571,16.3137857 173.948571,16.9540714 C173.948571,17.70525 173.18381,18.1729286 172.149524,18.1729286 C170.181905,18.1729286 170.101905,17.1199286 169.979048,15.8191071 L164.526667,15.8191071 C164.80381,19.494 166.54381,21.71475 172.086667,21.71475 C176.807619,21.71475 179.584762,19.7775 179.584762,16.4343214 C179.584762,15.7149643 179.430476,15.0293571 179.155238,14.4045 C178.507619,13.0284643 176.933333,12.2165357 173.724762,11.6215714 L173.724762,11.6215714 Z" id="Shape" fill="#000000"></path>
                            <path d="M124.020952,21.71475 C128.74,21.71475 131.517143,19.7765357 131.517143,16.4352857 C131.517143,15.714 131.364762,15.0283929 131.087619,14.4045 C130.438095,13.0294286 128.864762,12.2175 125.65619,11.6225357 C122.724762,11.0921786 122.406667,10.9041429 122.406667,10.1867143 C122.406667,9.56282143 122.879048,9.19735714 123.958095,9.19735714 C125.254286,9.19735714 125.668571,9.58017857 125.882857,10.59075 L131.11619,10.59075 C130.808571,7.29867857 128.587619,5.81271429 123.804762,5.81271429 C119.265714,5.81271429 116.765714,7.53010714 116.765714,10.5917143 C116.765714,12.0921429 117.444762,13.3428214 118.650476,14.0612143 C119.577143,14.6243571 120.378095,14.8731429 123.000952,15.4362857 C125.747619,16.0293214 125.880952,16.3137857 125.880952,16.956 C125.880952,17.7062143 125.115238,18.1738929 124.079048,18.1738929 C122.115238,18.1738929 122.031429,17.07075 121.908571,15.8200714 L116.46381,15.8200714 L116.46381,15.8904643 C116.764762,19.4708571 118.514286,21.71475 124.020952,21.71475 L124.020952,21.71475 Z" id="Shape" fill="#000000"></path>
                            <path id="Shape" fill="#FFFFFF"></path>
                            <path d="M22.0495238,0.531321429 L14.5685714,0.531321429 C14.5685714,0.531321429 11.5161905,5.56103571 11.1771429,6.34307143 C10.7152381,5.28042857 7.36952381,0.531321429 7.36952381,0.531321429 L0,0.531321429 L7.4752381,10.3111071 L0.00666666667,21.3377143 L7.54666667,21.3377143 L9.26380952,18.0591429 C9.91238095,16.9965 10.4980952,15.8702143 10.9,14.9666786 C11.3628571,16.119 11.7028571,16.7766429 12.412381,17.9646429 L14.4180952,21.3377143 L22.0495238,21.3377143 L14.6647619,10.3101429 L22.0495238,0.531321429 L22.0495238,0.531321429 Z" id="Shape" fill="#CC0000"></path>
                            <path d="M37.0171429,1.81189286 C35.5971429,0.844714286 34.0542857,0.531321429 30.6904762,0.531321429 L22.0495238,0.531321429 L22.0495238,21.3386786 L28.5619048,21.3386786 L28.5619048,14.9348571 L32.232381,14.9348571 C34.9485714,14.9348571 36.6457143,14.3418214 37.972381,13.0284643 C39.2990476,11.6852143 40.0095238,9.936 40.0095238,7.90521429 C40.0095238,5.28139286 38.9285714,3.09342857 37.0171429,1.81189286 L37.0171429,1.81189286 Z M31.0809524,10.0285714 L28.5619048,10.0285714 L28.5619048,5.65457143 L30.9580952,5.65457143 C32.8095238,5.65457143 33.6733333,6.37392857 33.6733333,7.87435714 C33.6733333,9.37092857 32.9019048,10.0613571 31.0809524,10.0285714 L31.0809524,10.0285714 Z" id="Shape" fill="#CC0000"></path>
                            <path d="M50.3933333,0 C44.0057143,0 39.8095238,4.34314286 39.8095238,10.9359643 C39.8095238,17.5278214 44.0371429,21.8391429 50.3314286,21.8391429 C56.5019048,21.8391429 60.667619,17.496 60.667619,10.9668214 C60.667619,4.43667857 56.5333333,0 50.3933333,0 L50.3933333,0 Z M50.3314286,16.7158929 C47.7095238,16.7158929 46.3809524,14.5587857 46.3809524,10.8424286 C46.3809524,7.31121429 47.7704762,5.12325 50.3009524,5.12325 C52.8,5.12325 54.127619,7.18682143 54.127619,10.6862143 C54.1266667,14.6224286 52.892381,16.7158929 50.3314286,16.7158929 L50.3314286,16.7158929 Z" id="Shape" fill="#CC0000"></path>
                        </g>
                    </g>
                </g>
            </g>
        </g>
    </g>
</svg>